<svg xmlns="http://www.w3.org/2000/svg" viewBox="0 0 66.21 68.97"><defs><style>.cls-1{fill:#ffddad;}.cls-2{fill:#a53c3c;}.cls-3{fill:#003f2e;}.cls-4{fill:#ffeded;}.cls-5{fill:#e8c8a3;}.cls-6{fill:#ff3c3c;}</style></defs><title>profile-img</title><g id="Lager_2" data-name="Lager 2"><rect class="cls-1" x="7.77" y="2.57" width="42.66" height="65.89" rx="21.33" ry="21.33"/><path class="cls-2" d="M7.5,32.33S-2.63,11.06,6.31,5.7,22.4,3.91,22.4,3.91,36.7-5,47.43,5.7c7.43,7.43,14,8,17.34,7.64a.86.86,0,0,1,.71,1.44c-5,5.41-21.21,19.33-45.8,4a.59.59,0,0,0-.91.42C18.51,22.13,16.4,32.33,7.5,32.33Z"/><ellipse class="cls-3" cx="10.24" cy="33.49" rx="9.59" ry="12.62"/><path class="cls-3" d="M25.19,2.48S9.48,14.74,12.57,27.11l-6.68-1S6.63,4.6,24.19,2Z"/><path class="cls-3" d="M24.19,2a32.06,32.06,0,0,1,4.91-.83L24.28,3.23Z"/><circle class="cls-4" cx="29.05" cy="33.18" r="5.52"/><circle class="cls-4" cx="42.69" cy="32.01" r="4.36"/><circle class="cls-3" cx="31.14" cy="33.61" r="2.83"/><circle class="cls-3" cx="44.22" cy="32.51" r="2.32"/><rect class="cls-5" x="34.52" y="35.41" width="6.49" height="11.56" rx="3.24" ry="3.24" transform="translate(-6.47 7.04) rotate(-9.82)"/><path class="cls-3" d="M44.81,53.08A8,8,0,0,1,33,55.67a8.25,8.25,0,0,1-1.71-1.73,2.12,2.12,0,0,1,1.14-3.33l10.7-2.81a2.13,2.13,0,0,1,2.64,2.32A8.23,8.23,0,0,1,44.81,53.08Z"/><path class="cls-6" d="M44.81,53.08A8,8,0,0,1,33,55.67c.6-1.66,3-3.15,5.95-3.57A8.7,8.7,0,0,1,44.81,53.08Z"/></g></svg>